<svg width="84" height="84" viewBox="0 0 84 84" fill="none" xmlns="http://www.w3.org/2000/svg">
<rect width="84" height="84" fill="#767170"/>
<path d="M50.5716 32H33.4286C32.5196 32.001 31.6481 32.3625 31.0053 33.0053C30.3625 33.6481 30.001 34.5196 30 35.4286V49.143C30.001 50.052 30.3625 50.9235 31.0053 51.5663C31.6481 52.209 32.5196 52.5706 33.4286 52.5716H50.5716C51.4806 52.5706 52.3521 52.209 52.9949 51.5663C53.6376 50.9235 53.9992 50.052 54.0002 49.143V35.4286C53.9992 34.5196 53.6376 33.6481 52.9949 33.0053C52.3521 32.3625 51.4806 32.001 50.5716 32V32ZM46.2858 35.4286C46.7944 35.4286 47.2916 35.5794 47.7144 35.862C48.1373 36.1445 48.4669 36.5461 48.6615 37.016C48.8562 37.4859 48.9071 38.0029 48.8079 38.5017C48.7086 39.0005 48.4637 39.4587 48.1041 39.8183C47.7445 40.178 47.2863 40.4229 46.7875 40.5221C46.2887 40.6213 45.7716 40.5704 45.3018 40.3757C44.8319 40.1811 44.4303 39.8515 44.1477 39.4287C43.8652 39.0058 43.7144 38.5086 43.7144 38C43.7151 37.3183 43.9862 36.6646 44.4683 36.1825C44.9504 35.7005 45.6041 35.4293 46.2858 35.4286V35.4286ZM33.4286 50.8573C32.9739 50.8573 32.5379 50.6767 32.2164 50.3552C31.8949 50.0337 31.7143 49.5976 31.7143 49.143V45.5199L36.795 41.0038C37.2853 40.5691 37.9228 40.3375 38.5777 40.3565C39.2327 40.3754 39.8558 40.6433 40.3201 41.1056L43.7996 44.5776L37.5199 50.8573H33.4286ZM52.2859 49.143C52.2859 49.5976 52.1053 50.0337 51.7838 50.3552C51.4623 50.6767 51.0262 50.8573 50.5716 50.8573H39.9445L46.4492 44.3526C46.9098 43.9609 47.4942 43.7452 48.0987 43.7436C48.7033 43.742 49.2888 43.9548 49.7514 44.344L52.2859 46.4558V49.143Z" fill="#A3A1A0"/>
</svg>
