<svg width="21" height="19" viewBox="0 0 21 19" fill="none" xmlns="http://www.w3.org/2000/svg">
<path fill-rule="evenodd" clip-rule="evenodd" d="M4.16618 14.2006C4.23073 14.1296 4.30933 14.073 4.39702 14.0341C4.48462 13.9953 4.57951 13.9752 4.67535 13.9752L20.3857 13.988C20.4527 13.9882 20.5181 14.0077 20.5741 14.0443C20.6301 14.0809 20.6743 14.133 20.7012 14.1942C20.7282 14.2555 20.7368 14.3233 20.726 14.3893C20.7152 14.4553 20.6854 14.5167 20.6403 14.5662L17.2948 18.2499C17.2302 18.3209 17.1515 18.3776 17.0638 18.4164C16.9761 18.4553 16.8812 18.4753 16.7852 18.4753L1.07521 18.4625C1.00831 18.4623 0.94288 18.4428 0.886881 18.4062C0.830881 18.3696 0.786719 18.3174 0.759761 18.2562C0.732803 18.195 0.724196 18.1272 0.735005 18.0612C0.745806 17.9952 0.775558 17.9338 0.820629 17.8843L4.16618 14.2006ZM20.6403 11.134C20.6854 11.1835 20.7152 11.245 20.726 11.311C20.7368 11.377 20.7282 11.4448 20.7012 11.506C20.6743 11.5672 20.6301 11.6193 20.5741 11.6559C20.5181 11.6925 20.4527 11.712 20.3857 11.7122L4.67577 11.7251C4.57986 11.7251 4.48497 11.705 4.39719 11.6662C4.30942 11.6273 4.23073 11.5706 4.16618 11.4996L0.820629 7.81377C0.775558 7.76431 0.745806 7.70285 0.735005 7.63685C0.724196 7.57084 0.732803 7.50304 0.759761 7.44184C0.786719 7.38064 0.830881 7.32852 0.886881 7.29192C0.94288 7.25532 1.00831 7.23577 1.07521 7.2356L16.7856 7.22274C16.8815 7.22283 16.9763 7.24289 17.064 7.28172C17.1517 7.32055 17.2303 7.37721 17.2948 7.44818L20.6403 11.134ZM4.16618 0.700047C4.23073 0.629098 4.30933 0.572396 4.39702 0.533574C4.48462 0.494761 4.57951 0.474669 4.67535 0.474609L20.3857 0.487467C20.4527 0.487604 20.5181 0.507165 20.5741 0.543775C20.6301 0.580385 20.6743 0.632467 20.7012 0.693695C20.7282 0.754932 20.7368 0.822675 20.726 0.888695C20.7152 0.954715 20.6854 1.01617 20.6403 1.06563L17.2948 4.74936C17.2302 4.82033 17.1515 4.87708 17.0638 4.91591C16.9761 4.95474 16.8812 4.97479 16.7852 4.97479L1.07521 4.96194C1.00831 4.96177 0.94288 4.94222 0.886881 4.90562C0.830881 4.86902 0.786719 4.8169 0.759761 4.7557C0.732803 4.6945 0.724196 4.6267 0.735005 4.56069C0.745806 4.49469 0.775558 4.43323 0.820629 4.38377L4.16618 0.700047Z" fill="url(#paint0_linear_1238_19291)"/>
<defs>
<linearGradient id="paint0_linear_1238_19291" x1="1.33751" y1="18.8679" x2="20.1234" y2="0.0820059" gradientUnits="userSpaceOnUse">
<stop stop-color="#9945FF"/>
<stop offset="0.2" stop-color="#7962E7"/>
<stop offset="1" stop-color="#00D18C"/>
</linearGradient>
</defs>
</svg>
